<svg id="Layer_1" enable-background="new 0 0 512 512" height="512" viewBox="0 0 512 512" width="512" xmlns="http://www.w3.org/2000/svg"><g><path d="m278.681 441.626v-73.434h-93.266v73.434l-65.716 23.391v46.983h136.301 22.681v-46.983z" fill="#3e34c2"/><path d="m326.585 441.626v-73.434h-70.585v143.808h136.301v-46.983z" fill="#23238e"/><path d="m0 0h278.681v389.416h-278.681z" fill="#6e67d5"/><path d="m256 0h256v389.416h-256z" fill="#554cce"/><g><path d="m60 118.97h203.5v210.446h-203.5z" fill="#d0e8ff"/></g><g><path d="m256 118.97h196v210.446h-196z" fill="#9dcfff"/></g><g><g><g><path d="m118.794 187.214h106.032v30h-106.032z" fill="#e20a6c"/></g><g><path d="m118.794 247.341h106.032v30h-106.032z" fill="#e20a6c"/></g><g><path d="m408.206 277.341h-122.514v-90.127h122.514z" fill="#fcbe00"/></g></g></g><path d="m60 60h203.5v75.017h-203.5z" fill="#7ee780"/><path d="m256 60h196v75.017h-196z" fill="#00cb71"/></g></svg>